name analog
datacolumns 19
datarows 64
range 0.509 0.5405
endheader
time	ground_force_vx	ground_force_vy	ground_force_vz	ground_force_px	ground_force_py	ground_force_pz	l_ground_force_vx	l_ground_force_vy	l_ground_force_vz	l_ground_force_px	l_ground_force_py	l_ground_force_pz	ground_torque_x	ground_torque_y	ground_torque_z	l_ground_torque_x	l_ground_torque_y	l_ground_torque_z
0.509	-0.0	-0.0	-0.0	-0.0	-0.0	-0.0	4.48736047744751	-5.095548629760742	-416.0919189453125	-0.0	-0.0	-0.0	-0.0	-0.0	-0.0	123945.453125	27744.876953125	959.3700561523438
0.5095000000000001	-0.0	-0.0	-0.0	-0.0	-0.0	-0.0	5.096347808837891	-4.211948394775391	-416.092529296875	-0.0	-0.0	-0.0	-0.0	-0.0	-0.0	124217.6875	27553.923828125	1244.3582763671875
0.51	-0.0	-0.0	-0.0	-0.0	-0.0	-0.0	5.4879021644592285	-3.8498151302337646	-415.8874816894531	-0.0	-0.0	-0.0	-0.0	-0.0	-0.0	124195.0078125	27408.984375	1320.3477783203125
0.5105000000000001	-0.0	-0.0	-0.0	-0.0	-0.0	-0.0	5.560636043548584	-2.9908769130706787	-416.14105224609375	-0.0	-0.0	-0.0	-0.0	-0.0	-0.0	124552.6484375	27386.640625	1464.834228515625
0.511	-0.0	-0.0	-0.0	-0.0	-0.0	-0.0	5.197826862335205	-2.537361621856689	-416.8396606445313	-0.0	-0.0	-0.0	-0.0	-0.0	-0.0	125134.2109375	27176.197265625	1454.0552978515625
0.5115000000000001	-0.0	-0.0	-0.0	-0.0	-0.0	-0.0	4.701671600341797	-2.20804214477539	-418.1230163574219	-0.0	-0.0	-0.0	-0.0	-0.0	-0.0	125843.140625	27664.666015625	1219.008544921875
0.512	-0.0	-0.0	-0.0	-0.0	-0.0	-0.0	4.275304794311523	-1.9193404912948608	-420.3316345214844	-0.0	-0.0	-0.0	-0.0	-0.0	-0.0	126810.1796875	27691.935546875	951.8023681640624
0.5125	-0.0	-0.0	-0.0	-0.0	-0.0	-0.0	3.4597206115722656	-1.5544154644012451	-424.1260070800781	-0.0	-0.0	-0.0	-0.0	-0.0	-0.0	127422.2109375	27989.015625	727.8251953125
0.513	-0.0	-0.0	-0.0	-0.0	-0.0	-0.0	2.8387451171875	-1.901711225509644	-426.1041870117188	-0.0	-0.0	-0.0	-0.0	-0.0	-0.0	128120.46875	28114.234375	515.775146484375
0.5135	-0.0	-0.0	-0.0	-0.0	-0.0	-0.0	2.934171199798584	-1.9130667448043823	-429.12701416015625	-0.0	-0.0	-0.0	-0.0	-0.0	-0.0	129425.9375	28209.275390625	430.8937377929688
0.514	-0.0	-0.0	-0.0	-0.0	-0.0	-0.0	1.9865901470184328	-2.484606981277466	-433.4347534179688	-0.0	-0.0	-0.0	-0.0	-0.0	-0.0	130525.453125	28324.76953125	78.08597564697266
0.5145	-0.0	-0.0	-0.0	-0.0	-0.0	-0.0	1.4541667699813845	-2.5728759765625	-437.88177490234375	-0.0	-0.0	-0.0	-0.0	-0.0	-0.0	132166.546875	28311.634765625	-89.97364807128906
0.515	-0.0	-0.0	-0.0	-0.0	-0.0	-0.0	0.8986288905143738	-2.6840620040893555	-443.771728515625	-0.0	-0.0	-0.0	-0.0	-0.0	-0.0	133893.265625	28585.96484375	-337.9046630859375
0.5155	-0.0	-0.0	-0.0	-0.0	-0.0	-0.0	0.346342384815216	-2.450190544128418	-447.4436340332031	-0.0	-0.0	-0.0	-0.0	-0.0	-0.0	135829.296875	28674.763671875	-364.0077819824219
0.516	-0.0	-0.0	-0.0	-0.0	-0.0	-0.0	0.5322647094726562	-2.0743002891540527	-453.2436828613281	-0.0	-0.0	-0.0	-0.0	-0.0	-0.0	137505.625	29106.845703125	-549.35595703125
0.5165	-0.0	-0.0	-0.0	-0.0	-0.0	-0.0	0.1000388115644455	-1.524025321006775	-457.4407653808594	-0.0	-0.0	-0.0	-0.0	-0.0	-0.0	139047.046875	29244.9765625	-675.0128784179688
0.517	-0.0	-0.0	-0.0	-0.0	-0.0	-0.0	-0.2323365807533264	-1.379499435424805	-461.75579833984375	-0.0	-0.0	-0.0	-0.0	-0.0	-0.0	140782.296875	29460.177734375	-764.2466430664062
0.5175	-0.0	-0.0	-0.0	-0.0	-0.0	-0.0	-0.2996970415115356	-0.5529999732971191	-465.24609375	-0.0	-0.0	-0.0	-0.0	-0.0	-0.0	141869.53125	29900.453125	-760.3949584960938
0.518	-0.0	-0.0	-0.0	-0.0	-0.0	-0.0	-0.3771140873432159	-0.3865466117858886	-469.3035888671875	-0.0	-0.0	-0.0	-0.0	-0.0	-0.0	143398.03125	30100.615234375	-730.7965698242188
0.5185	-0.0	-0.0	-0.0	-0.0	-0.0	-0.0	-0.1330402791500091	0.3974733650684356	-471.791259765625	-0.0	-0.0	-0.0	-0.0	-0.0	-0.0	144503.265625	30209.353515625	-689.67822265625
0.519	-0.0	-0.0	-0.0	-0.0	-0.0	-0.0	0.0330160371959209	0.2540079951286316	-475.2386779785156	-0.0	-0.0	-0.0	-0.0	-0.0	-0.0	145421.46875	30044.7109375	-448.5527038574219
0.5195	-0.0	-0.0	-0.0	-0.0	-0.0	-0.0	0.919936180114746	0.6085205078125	-476.3289489746094	-0.0	-0.0	-0.0	-0.0	-0.0	-0.0	146169.578125	30123.37890625	-221.8668670654297
0.52	-0.0	-0.0	-0.0	-0.0	-0.0	-0.0	1.564124584197998	0.2432809174060821	-479.69146728515625	-0.0	-0.0	-0.0	-0.0	-0.0	-0.0	147175.34375	30355.826171875	-169.52713012695312
0.5205	-0.0	-0.0	-0.0	-0.0	-0.0	-0.0	1.373913049697876	-0.4761032164096832	-481.8717956542969	-0.0	-0.0	-0.0	-0.0	-0.0	-0.0	147827.21875	30113.07421875	-325.4482421875
0.521	-0.0	-0.0	-0.0	-0.0	-0.0	-0.0	1.153240203857422	0.0321085155010223	-483.1305847167969	-0.0	-0.0	-0.0	-0.0	-0.0	-0.0	148352.296875	30224.501953125	-261.6468505859375
0.5215	-0.0	-0.0	-0.0	-0.0	-0.0	-0.0	-0.0213459264487028	0.2085218131542205	-487.4156494140625	-0.0	-0.0	-0.0	-0.0	-0.0	-0.0	149731.953125	30946.904296875	-678.6661987304688
0.522	-0.0	-0.0	-0.0	-0.0	-0.0	-0.0	-1.42999267578125	0.992685616016388	-491.0891418457031	-0.0	-0.0	-0.0	-0.0	-0.0	-0.0	151069.640625	31314.46484375	-1086.4266357421875
0.5225	-0.0	-0.0	-0.0	-0.0	-0.0	-0.0	-2.9697251319885254	1.4341888427734375	-495.4045715332031	-0.0	-0.0	-0.0	-0.0	-0.0	-0.0	152555.765625	31686.271484375	-1591.6099853515625
0.523	-0.0	-0.0	-0.0	-0.0	-0.0	-0.0	-4.602470397949219	1.776877999305725	-500.251708984375	-0.0	-0.0	-0.0	-0.0	-0.0	-0.0	154190.359375	32165.03125	-2068.781494140625
0.5235	-0.0	-0.0	-0.0	-0.0	-0.0	-0.0	-5.646206855773926	2.119720458984375	-505.5304870605469	-0.0	-0.0	-0.0	-0.0	-0.0	-0.0	155972.875	32618.48828125	-2432.44140625
0.524	-0.0	-0.0	-0.0	-0.0	-0.0	-0.0	-6.230504512786865	2.228700876235962	-510.5821533203125	-0.0	-0.0	-0.0	-0.0	-0.0	-0.0	157927.4375	32936.53515625	-2532.246826171875
0.5245	-0.0	-0.0	-0.0	-0.0	-0.0	-0.0	-6.799837112426758	2.3271217346191406	-516.289306640625	-0.0	-0.0	-0.0	-0.0	-0.0	-0.0	159789.59375	33190.66015625	-2785.77783203125
0.525	-0.0	-0.0	-0.0	-0.0	-0.0	-0.0	-6.318935871124268	2.150291204452514	-522.37109375	-0.0	-0.0	-0.0	-0.0	-0.0	-0.0	161547.75	33218.875	-2762.703369140625
0.5255	-0.0	-0.0	-0.0	-0.0	-0.0	-0.0	-5.479752540588379	2.0893797874450684	-525.7130126953125	-0.0	-0.0	-0.0	-0.0	-0.0	-0.0	162822.828125	33129.90625	-2449.40478515625
0.526	-0.0	-0.0	-0.0	-0.0	-0.0	-0.0	-4.405223846435547	1.41314697265625	-528.72607421875	-0.0	-0.0	-0.0	-0.0	-0.0	-0.0	163697.875	32724.884765625	-2292.916015625
0.5265	-0.0	-0.0	-0.0	-0.0	-0.0	-0.0	-3.163431167602539	1.25652015209198	-528.5433349609375	-0.0	-0.0	-0.0	-0.0	-0.0	-0.0	164307.984375	32386.470703125	-1785.1343994140625
0.527	-0.0	-0.0	-0.0	-0.0	-0.0	-0.0	-1.4482313394546509	0.6767787933349609	-531.1381225585938	-0.0	-0.0	-0.0	-0.0	-0.0	-0.0	164876.546875	32126.6484375	-1243.412109375
0.5275	-0.0	-0.0	-0.0	-0.0	-0.0	-0.0	-0.0490603260695934	0.0883216857910156	-530.9815673828125	-0.0	-0.0	-0.0	-0.0	-0.0	-0.0	164425.359375	31331.970703125	-995.3310546875
0.528	-0.0	-0.0	-0.0	-0.0	-0.0	-0.0	1.527802348136902	-0.4317921698093414	-528.6931762695312	-0.0	-0.0	-0.0	-0.0	-0.0	-0.0	164188.4375	31405.548828125	-608.7802124023438
0.5285	-0.0	-0.0	-0.0	-0.0	-0.0	-0.0	2.31626296043396	-0.6377309560775757	-527.8016967773438	-0.0	-0.0	-0.0	-0.0	-0.0	-0.0	163458.453125	30996.76171875	-393.960693359375
0.529	-0.0	-0.0	-0.0	-0.0	-0.0	-0.0	2.867905139923096	-0.9908932447433472	-522.5986328125	-0.0	-0.0	-0.0	-0.0	-0.0	-0.0	162748.171875	30553.62890625	-212.36083984375
0.5295	-0.0	-0.0	-0.0	-0.0	-0.0	-0.0	2.730748414993286	-1.1865845918655396	-521.2833251953125	-0.0	-0.0	-0.0	-0.0	-0.0	-0.0	162472.578125	30196.57421875	-364.0013122558594
0.53	-0.0	-0.0	-0.0	-0.0	-0.0	-0.0	1.6567347049713137	-1.511016607284546	-520.6699829101562	-0.0	-0.0	-0.0	-0.0	-0.0	-0.0	161300.171875	29839.814453125	-572.4427490234375
0.5305	-0.0	-0.0	-0.0	-0.0	-0.0	-0.0	0.6591241359710693	-1.2270082235336304	-516.4328002929688	-0.0	-0.0	-0.0	-0.0	-0.0	-0.0	161054.859375	29654.6875	-909.8607177734376
0.531	-0.0	-0.0	-0.0	-0.0	-0.0	-0.0	0.5228045582771301	-1.1105073690414429	-515.184814453125	-0.0	-0.0	-0.0	-0.0	-0.0	-0.0	160863.59375	29536.7421875	-1034.98828125
0.5315	-0.0	-0.0	-0.0	-0.0	-0.0	-0.0	0.0981084555387497	-0.8136080503463745	-515.4217529296875	-0.0	-0.0	-0.0	-0.0	-0.0	-0.0	160916.328125	29106.109375	-997.9051513671876
0.532	-0.0	-0.0	-0.0	-0.0	-0.0	-0.0	-0.0186892226338386	-0.7948951721191406	-514.7598876953125	-0.0	-0.0	-0.0	-0.0	-0.0	-0.0	160838.703125	28774.9609375	-1021.2916259765624
0.5325	-0.0	-0.0	-0.0	-0.0	-0.0	-0.0	-0.1496188193559646	-0.6367056965827942	-516.9476318359375	-0.0	-0.0	-0.0	-0.0	-0.0	-0.0	160928.984375	28872.265625	-1080.5694580078125
0.533	-0.0	-0.0	-0.0	-0.0	-0.0	-0.0	-0.2050367891788482	-1.0781896114349363	-516.0098876953125	-0.0	-0.0	-0.0	-0.0	-0.0	-0.0	160966.609375	28896.873046875	-1130.7313232421875
0.5335	-0.0	-0.0	-0.0	-0.0	-0.0	-0.0	-0.0795827358961105	-1.270297288894653	-512.7701416015625	-0.0	-0.0	-0.0	-0.0	-0.0	-0.0	160216.8125	28513.888671875	-1210.500244140625
0.534	-0.0	-0.0	-0.0	-0.0	-0.0	-0.0	-0.2137221843004226	-1.0869662761688232	-512.7608032226562	-0.0	-0.0	-0.0	-0.0	-0.0	-0.0	159671.65625	28390.125	-1112.4884033203125
0.5345	-0.0	-0.0	-0.0	-0.0	-0.0	-0.0	0.293198823928833	-1.422129511833191	-507.9801025390625	-0.0	-0.0	-0.0	-0.0	-0.0	-0.0	158623.71875	28230.591796875	-1035.377197265625
0.535	-0.0	-0.0	-0.0	-0.0	-0.0	-0.0	0.6478108763694763	-1.713735580444336	-504.0722351074219	-0.0	-0.0	-0.0	-0.0	-0.0	-0.0	157772.140625	27696.91796875	-966.9232177734376
0.5355	-0.0	-0.0	-0.0	-0.0	-0.0	-0.0	1.233068346977234	-2.949875593185425	-501.7658386230469	-0.0	-0.0	-0.0	-0.0	-0.0	-0.0	156848.59375	27350.412109375	-794.8609008789062
0.536	-0.0	-0.0	-0.0	-0.0	-0.0	-0.0	2.040348052978516	-2.9941468238830566	-498.4842529296875	-0.0	-0.0	-0.0	-0.0	-0.0	-0.0	155838.734375	26725.171875	-462.1244201660156
0.5365	-0.0	-0.0	-0.0	-0.0	-0.0	-0.0	2.75003433227539	-3.789118766784668	-495.3772583007813	-0.0	-0.0	-0.0	-0.0	-0.0	-0.0	154784.40625	26402.9609375	-316.5310974121094
0.537	-0.0	-0.0	-0.0	-0.0	-0.0	-0.0	4.054626941680908	-4.707004547119141	-491.5370788574219	-0.0	-0.0	-0.0	-0.0	-0.0	-0.0	153644.109375	26247.09375	61.016151428222656
0.5375	-0.0	-0.0	-0.0	-0.0	-0.0	-0.0	4.879093170166016	-5.78378438949585	-489.0258483886719	-0.0	-0.0	-0.0	-0.0	-0.0	-0.0	152441.0625	25984.138671875	515.7935180664062
0.538	-0.0	-0.0	-0.0	-0.0	-0.0	-0.0	5.3942389488220215	-6.712448120117188	-485.25335693359375	-0.0	-0.0	-0.0	-0.0	-0.0	-0.0	151282.28125	25429.9765625	449.9542541503906
0.5385	-0.0	-0.0	-0.0	-0.0	-0.0	-0.0	6.2267680168151855	-7.473466396331787	-482.7762756347656	-0.0	-0.0	-0.0	-0.0	-0.0	-0.0	150074.75	25533.591796875	720.1561889648438
0.539	-0.0	-0.0	-0.0	-0.0	-0.0	-0.0	6.3618879318237305	-8.045665740966797	-479.4515380859375	-0.0	-0.0	-0.0	-0.0	-0.0	-0.0	149264.71875	25218.873046875	755.3569946289062
0.5395	-0.0	-0.0	-0.0	-0.0	-0.0	-0.0	5.635655403137207	-8.197256088256836	-477.9556579589844	-0.0	-0.0	-0.0	-0.0	-0.0	-0.0	148731.40625	25103.5390625	595.206787109375
0.54	-0.0	-0.0	-0.0	-0.0	-0.0	-0.0	5.610980033874512	-7.885461807250977	-475.8609619140625	-0.0	-0.0	-0.0	-0.0	-0.0	-0.0	148100.0	25143.427734375	547.0604858398438
0.5405	-0.0	-0.0	-0.0	-0.0	-0.0	-0.0	4.920277118682861	-8.22211742401123	-473.13287353515625	-0.0	-0.0	-0.0	-0.0	-0.0	-0.0	147553.40625	24698.677734375	419.4617309570313
